<?xml version="1.0" standalone="no"?><!DOCTYPE svg PUBLIC "-//W3C//DTD SVG 1.1//EN" "http://www.w3.org/Graphics/SVG/1.1/DTD/svg11.dtd"><svg t="1734504342029" class="icon" viewBox="0 0 1024 1024" version="1.1" xmlns="http://www.w3.org/2000/svg" p-id="15430" xmlns:xlink="http://www.w3.org/1999/xlink" width="200" height="200"><path d="M512 861.866667c-217.6 0-405.333333-136.533333-469.333333-337.066667-4.266667-8.533333-4.266667-17.066667 0-25.6 25.6-72.533333 68.266667-140.8 119.466666-192 17.066667-17.066667 42.666667-17.066667 59.733334 0 17.066667 17.066667 17.066667 42.666667 0 59.733333-42.666667 42.666667-72.533333 89.6-93.866667 145.066667 55.466667 157.866667 204.8 264.533333 379.733333 264.533333 42.666667 0 81.066667-4.266667 119.466667-17.066666 21.333333-8.533333 46.933333 4.266667 51.2 29.866666 8.533333 21.333333-4.266667 46.933333-29.866667 51.2-38.4 17.066667-85.333333 21.333333-136.533333 21.333334zM832 729.6c-12.8 0-21.333333-4.266667-29.866667-12.8-17.066667-17.066667-17.066667-42.666667 0-59.733333 42.666667-42.666667 72.533333-89.6 93.866667-145.066667-55.466667-157.866667-204.8-264.533333-379.733333-264.533333-42.666667 0-81.066667 4.266667-119.466667 17.066666-25.6 8.533333-51.2-4.266667-55.466667-29.866666-8.533333-21.333333 4.266667-46.933333 25.6-51.2 46.933333-12.8 93.866667-21.333333 145.066667-21.333334 217.6 0 405.333333 136.533333 469.333333 337.066667 4.266667 8.533333 4.266667 17.066667 0 25.6-21.333333 72.533333-64 140.8-119.466666 192-8.533333 8.533333-21.333333 12.8-29.866667 12.8z" fill="#374151" p-id="15431"></path><path d="M840.533333 789.333333l-174.933333-179.2c21.333333-29.866667 34.133333-68.266667 34.133333-106.666666 0-98.133333-76.8-174.933333-174.933333-174.933334-38.4 0-72.533333 12.8-102.4 29.866667L247.466667 174.933333c-17.066667-17.066667-42.666667-17.066667-59.733334 0-17.066667 17.066667-17.066667 42.666667 0 59.733334l593.066667 614.4c8.533333 8.533333 21.333333 12.8 29.866667 12.8 12.8 0 21.333333-4.266667 29.866666-12.8 17.066667-17.066667 17.066667-42.666667 0-59.733334z m-315.733333-379.733333c51.2 0 89.6 38.4 89.6 89.6 0 17.066667-4.266667 29.866667-8.533333 42.666667l-119.466667-123.733334c8.533333-4.266667 21.333333-8.533333 38.4-8.533333z" fill="#374151" p-id="15432"></path></svg>