<?xml version="1.0" standalone="no"?><!DOCTYPE svg PUBLIC "-//W3C//DTD SVG 1.1//EN" "http://www.w3.org/Graphics/SVG/1.1/DTD/svg11.dtd"><svg t="1730902313604" class="icon" viewBox="0 0 1024 1024" version="1.1" xmlns="http://www.w3.org/2000/svg" p-id="17291" xmlns:xlink="http://www.w3.org/1999/xlink" width="200" height="200"><path d="M868 332.78H156c-24.3 0-44-19.7-44-44s19.7-44 44-44h712c24.3 0 44 19.7 44 44s-19.7 44-44 44zM868 556H156c-24.3 0-44-19.7-44-44s19.7-44 44-44h712c24.3 0 44 19.7 44 44s-19.7 44-44 44zM868 779.22H156c-24.3 0-44-19.7-44-44s19.7-44 44-44h712c24.3 0 44 19.7 44 44s-19.7 44-44 44z" p-id="17292" fill="#2c2c2c"></path></svg>