<?xml version="1.0" standalone="no"?><!DOCTYPE svg PUBLIC "-//W3C//DTD SVG 1.1//EN" "http://www.w3.org/Graphics/SVG/1.1/DTD/svg11.dtd"><svg t="1734503948690" class="icon" viewBox="0 0 1059 1024" version="1.1" xmlns="http://www.w3.org/2000/svg" p-id="12372" xmlns:xlink="http://www.w3.org/1999/xlink" width="206.8359375" height="200"><path d="M1031.062069 180.082759l-3.531035 621.462069c0 31.77931-24.717241 52.965517-56.496551 52.965517h-257.765517c-7.062069 0-17.655172 3.531034-24.717242 7.062069l-141.241379 123.586207c-10.593103 10.593103-28.248276 10.593103-38.841379 0L353.103448 861.572414l60.027586-60.027586 95.337932 77.682758c14.124138 10.593103 31.77931 10.593103 45.903448 0l95.337931-81.213793c7.062069-7.062069 14.124138-7.062069 21.186207-7.062069h257.765517c17.655172 0 35.310345-14.124138 35.310345-35.310345l3.531034-504.937931 63.558621-70.620689zM942.786207 17.655172c14.124138 14.124138 14.124138 35.310345 0 49.434483l-847.448276 847.448276c-14.124138 14.124138-38.841379 14.124138-52.965517 0-14.124138-14.124138-14.124138-35.310345 0-49.434483l847.448276-847.448276c17.655172-14.124138 38.841379-14.124138 52.965517 0z m-264.827586 17.655173l-70.62069 70.620689H137.710345c-21.186207 0-35.310345 14.124138-35.310345 35.310345v469.627587l-70.62069 70.620689V91.806897c0-31.77931 24.717241-52.965517 56.496552-52.965518L677.958621 35.310345z" fill="#12161F" p-id="12373"></path></svg>