<?xml version="1.0" standalone="no"?><!DOCTYPE svg PUBLIC "-//W3C//DTD SVG 1.1//EN" "http://www.w3.org/Graphics/SVG/1.1/DTD/svg11.dtd"><svg t="1732706964070" class="icon" viewBox="0 0 1024 1024" version="1.1" xmlns="http://www.w3.org/2000/svg" p-id="2048" xmlns:xlink="http://www.w3.org/1999/xlink" width="200" height="200"><path d="M553.924855 171.920558c-0.00921-13.028735 0.234337-26.574239-3.067872-38.96443-5.119601-19.218714-18.909675-30.887474-39.641859-30.297027-20.61348 0.585331-34.056654 12.429077-37.930891 32.254611-2.798742 14.3181-2.785439 29.319769-2.830465 44.020586-0.24764 80.400145 0.007163 160.801313-0.243547 241.201457-0.049119 15.670911-1.564635 31.338752-2.577708 50.239218-98.885148 0-192.211696-0.076748-285.538245 0.080841-14.731516 0.023536-29.743418-0.484024-44.128033 2.062985-21.678742 3.839445-35.698037 17.189498-35.279504 40.448224 0.417509 23.198352 15.137769 35.647895 36.541241 39.732933 11.136641 2.125407 22.8668 1.454118 34.331923 1.486864 47.583738 0.1361 95.1685 0.059352 142.752238 0.059352 48.931432 0.001023 97.861842 0.001023 154.017816 0.001023 0 23.531949 0 39.740096 0.001023 55.95029 0.002047 78.759785-0.140193 157.51957 0.134053 236.279355 0.051165 14.685467 0.190335 29.689183 3.109828 43.971467 4.095271 20.032242 18.065448 30.807656 38.755676 30.91408 20.958334 0.105401 34.201963-11.717879 38.899962-31.088042 3.034103-12.508895 2.701528-25.999141 2.709715-39.050388C554.080397 624.788809 554.087561 398.354684 553.924855 171.920558z" p-id="2049" fill="#515151"></path><path d="M875.004571 471.123011c-31.028691-1.725294-62.22725-0.382717-93.352131-0.410346-32.763195-0.027629-65.586764-1.266853-98.271164 0.338714-29.446659 1.445932-46.768163 17.430998-47.673789 39.670511-0.910743 22.390963 16.537651 41.936111 44.455491 42.623773 65.485457 1.613754 131.064035 1.636267 196.550515 0.061398 29.308513-0.706081 45.031613-18.176988 44.598754-41.958624C920.885528 487.927745 905.33332 472.807373 875.004571 471.123011z" p-id="2050" fill="#515151"></path></svg>