<?xml version="1.0" standalone="no"?><!DOCTYPE svg PUBLIC "-//W3C//DTD SVG 1.1//EN" "http://www.w3.org/Graphics/SVG/1.1/DTD/svg11.dtd"><svg t="1734504399146" class="icon" viewBox="0 0 1024 1024" version="1.1" xmlns="http://www.w3.org/2000/svg" p-id="17285" xmlns:xlink="http://www.w3.org/1999/xlink" width="200" height="200"><path d="M864.209585 0.053228H159.683959a160.163011 160.163011 0 0 0-159.683959 159.683959v704.578854a160.163011 160.163011 0 0 0 159.683959 159.683959h704.525626a160.163011 160.163011 0 0 0 159.683959-159.683959V159.737187a160.163011 160.163011 0 0 0-159.683959-159.683959z m104.380081 842.279655a126.789063 126.789063 0 0 1-126.310011 126.469695H181.773573a126.789063 126.789063 0 0 1-126.629379-126.522923V181.773573a126.789063 126.789063 0 0 1 126.629379-126.469695h660.506082a126.842291 126.842291 0 0 1 126.416467 126.469695z" p-id="17286"></path><path d="M506.730429 130.621478a381.43175 381.43175 0 1 0 381.43175 381.43175A382.496309 382.496309 0 0 0 506.730429 130.621478M201.627612 512.053228A306.060921 306.060921 0 0 1 506.730429 206.843955a300.578439 300.578439 0 0 1 187.1496 64.672003L266.406071 698.88346a300.844578 300.844578 0 0 1-64.778459-186.830232m305.102817 305.102817a300.578439 300.578439 0 0 1-186.883459-64.831687l427.261045-427.207818a300.418755 300.418755 0 0 1 64.831688 186.936688 306.007693 306.007693 0 0 1-305.102818 305.102817" p-id="17287"></path></svg>